<svg width="26" height="26" viewBox="0 0 26 26" fill="none" xmlns="http://www.w3.org/2000/svg">
<mask id="mask0_6_272" style="mask-type:luminance" maskUnits="userSpaceOnUse" x="0" y="0" width="26" height="26">
<path d="M25.213 10.7273H13.2944V15.5568H20.1549C19.5153 18.625 16.8409 20.3864 13.2944 20.3864C9.10836 20.3864 5.73627 17.0909 5.73627 13C5.73627 8.90909 9.10836 5.61364 13.2944 5.61364C15.0967 5.61364 16.7246 6.23865 18.0037 7.26138L21.7246 3.625C19.4572 1.69318 16.5502 0.5 13.2944 0.5C6.20138 0.5 0.503708 6.06818 0.503708 13C0.503708 19.9318 6.20138 25.5 13.2944 25.5C19.6898 25.5 25.5037 20.9545 25.5037 13C25.5037 12.2614 25.3874 11.4659 25.213 10.7273Z" fill="white"/>
</mask>
<g mask="url(#mask0_6_272)">
<path d="M-0.659073 20.3865V5.61377L9.22465 13.0001L-0.659073 20.3865Z" fill="#FBBC05"/>
</g>
<mask id="mask1_6_272" style="mask-type:luminance" maskUnits="userSpaceOnUse" x="0" y="0" width="26" height="26">
<path d="M25.213 10.7273H13.2944V15.5568H20.1549C19.5153 18.625 16.8409 20.3864 13.2944 20.3864C9.10836 20.3864 5.73627 17.0909 5.73627 13C5.73627 8.90909 9.10836 5.61364 13.2944 5.61364C15.0967 5.61364 16.7246 6.23865 18.0037 7.26138L21.7246 3.625C19.4572 1.69318 16.5502 0.5 13.2944 0.5C6.20138 0.5 0.503708 6.06818 0.503708 13C0.503708 19.9318 6.20138 25.5 13.2944 25.5C19.6898 25.5 25.5037 20.9545 25.5037 13C25.5037 12.2614 25.3874 11.4659 25.213 10.7273Z" fill="white"/>
</mask>
<g mask="url(#mask1_6_272)">
<path d="M-0.659073 5.61365L9.22465 13L13.2944 9.53411L27.2479 7.31819V-0.636353H-0.659073V5.61365Z" fill="#EA4335"/>
</g>
<mask id="mask2_6_272" style="mask-type:luminance" maskUnits="userSpaceOnUse" x="0" y="0" width="26" height="26">
<path d="M25.213 10.7273H13.2944V15.5568H20.1549C19.5153 18.625 16.8409 20.3864 13.2944 20.3864C9.10836 20.3864 5.73627 17.0909 5.73627 13C5.73627 8.90909 9.10836 5.61364 13.2944 5.61364C15.0967 5.61364 16.7246 6.23865 18.0037 7.26138L21.7246 3.625C19.4572 1.69318 16.5502 0.5 13.2944 0.5C6.20138 0.5 0.503708 6.06818 0.503708 13C0.503708 19.9318 6.20138 25.5 13.2944 25.5C19.6898 25.5 25.5037 20.9545 25.5037 13C25.5037 12.2614 25.3874 11.4659 25.213 10.7273Z" fill="white"/>
</mask>
<g mask="url(#mask2_6_272)">
<path d="M-0.659073 20.3864L16.7828 7.31819L21.3758 7.88637L27.2479 -0.636353V26.6364H-0.659073V20.3864Z" fill="#34A853"/>
</g>
<mask id="mask3_6_272" style="mask-type:luminance" maskUnits="userSpaceOnUse" x="0" y="0" width="26" height="26">
<path d="M25.213 10.7273H13.2944V15.5568H20.1549C19.5153 18.625 16.8409 20.3864 13.2944 20.3864C9.10836 20.3864 5.73627 17.0909 5.73627 13C5.73627 8.90909 9.10836 5.61364 13.2944 5.61364C15.0967 5.61364 16.7246 6.23865 18.0037 7.26138L21.7246 3.625C19.4572 1.69318 16.5502 0.5 13.2944 0.5C6.20138 0.5 0.503708 6.06818 0.503708 13C0.503708 19.9318 6.20138 25.5 13.2944 25.5C19.6898 25.5 25.5037 20.9545 25.5037 13C25.5037 12.2614 25.3874 11.4659 25.213 10.7273Z" fill="white"/>
</mask>
<g mask="url(#mask3_6_272)">
<path d="M27.2479 26.6365L9.22463 13.0001L6.89905 11.2956L27.2479 5.61377V26.6365Z" fill="#4285F4"/>
</g>
</svg>
